HIERARCHY
ROOT Hips
{
	OFFSET 0.000000 0.000000 0.000000
	CHANNELS 6 Xposition Yposition Zposition Zrotation Yrotation Xrotation 
	JOINT LHipJoint
	{
		OFFSET 0.000000 0.000000 0.000000
		CHANNELS 3 Zrotation Yrotation Xrotation
		JOINT LeftUpLeg
		{
			OFFSET 1.363060 -1.794630 0.839290
			CHANNELS 3 Zrotation Yrotation Xrotation
			JOINT LeftLeg
			{
				OFFSET 2.448110 -6.726130 0.000000
				CHANNELS 3 Zrotation Yrotation Xrotation
				JOINT LeftFoot
				{
					OFFSET 2.562200 -7.039590 0.000000
					CHANNELS 3 Zrotation Yrotation Xrotation
					JOINT LeftToeBase
					{
						OFFSET 0.157640 -0.433110 2.322550
						CHANNELS 3 Zrotation Yrotation Xrotation
						End Site
						{
							OFFSET 0.000000 0.000000 0.000000
						}
					}
				}
			}
		}
	}
	JOINT RHipJoint
	{
		OFFSET 0.000000 0.000000 0.000000
		CHANNELS 3 Zrotation Yrotation Xrotation
		JOINT RightUpLeg
		{
			OFFSET -1.305520 -1.794630 0.839290
			CHANNELS 3 Zrotation Yrotation Xrotation
			JOINT RightLeg
			{
				OFFSET -2.542530 -6.985550 0.000000
				CHANNELS 3 Zrotation Yrotation Xrotation
				JOINT RightFoot
				{
					OFFSET -2.568260 -7.056230 0.000000
					CHANNELS 3 Zrotation Yrotation Xrotation
					JOINT RightToeBase
					{
						OFFSET -0.164730 -0.452590 2.363150
						CHANNELS 3 Zrotation Yrotation Xrotation
						End Site
						{
							OFFSET 0.000000 0.000000 0.000000
						}
					}
				}
			}
		}
	}
	JOINT LowerBack
	{
		OFFSET 0.000000 0.000000 0.000000
		CHANNELS 3 Zrotation Yrotation Xrotation
		JOINT Spine
		{
			OFFSET 0.028270 2.035590 -0.193380
			CHANNELS 3 Zrotation Yrotation Xrotation
			JOINT Spine1
			{
				OFFSET 0.056720 2.048850 -0.042750
				CHANNELS 3 Zrotation Yrotation Xrotation
				JOINT Neck
				{
					OFFSET 0.000000 0.000000 0.000000
					CHANNELS 3 Zrotation Yrotation Xrotation
					JOINT Neck1
					{
						OFFSET -0.054170 1.746240 0.172020
						CHANNELS 3 Zrotation Yrotation Xrotation
						JOINT Head
						{
							OFFSET 0.104070 1.761360 -0.123970
							CHANNELS 3 Zrotation Yrotation Xrotation
							End Site
							{
								OFFSET 0.000000 0.000000 0.000000
							}
						}
					}
				}
				JOINT LeftShoulder
				{
					OFFSET 0.000000 0.000000 0.000000
					CHANNELS 3 Zrotation Yrotation Xrotation
					JOINT LeftArm
					{
						OFFSET 3.362410 1.200890 -0.311210
						CHANNELS 3 Zrotation Yrotation Xrotation
						JOINT LeftForeArm
						{
							OFFSET 4.983000 -0.000000 -0.000000
							CHANNELS 3 Zrotation Yrotation Xrotation
							JOINT LeftHand
							{
								OFFSET 3.483560 -0.000000 -0.000000
								CHANNELS 3 Zrotation Yrotation Xrotation
								JOINT LeftFingerBase
								{
									OFFSET 0.000000 0.000000 0.000000
									CHANNELS 3 Zrotation Yrotation Xrotation
									JOINT LeftHandIndex1
									{
										OFFSET 0.715260 -0.000000 -0.000000
										CHANNELS 3 Zrotation Yrotation Xrotation
										End Site
										{
											OFFSET 0.000000 0.000000 0.000000
										}
									}
								}
								JOINT LThumb
								{
									OFFSET 0.000000 0.000000 0.000000
									CHANNELS 3 Zrotation Yrotation Xrotation
									End Site
									{
										OFFSET 0.000000 0.000000 0.000000
									}
								}
							}
						}
					}
				}
				JOINT RightShoulder
				{
					OFFSET 0.000000 0.000000 0.000000
					CHANNELS 3 Zrotation Yrotation Xrotation
					JOINT RightArm
					{
						OFFSET -3.136600 1.374050 -0.404650
						CHANNELS 3 Zrotation Yrotation Xrotation
						JOINT RightForeArm
						{
							OFFSET -5.241900 -0.000000 -0.000000
							CHANNELS 3 Zrotation Yrotation Xrotation
							JOINT RightHand
							{
								OFFSET -3.444170 -0.000000 -0.000000
								CHANNELS 3 Zrotation Yrotation Xrotation
								JOINT RightFingerBase
								{
									OFFSET 0.000000 0.000000 0.000000
									CHANNELS 3 Zrotation Yrotation Xrotation
									JOINT RightHandIndex1
									{
										OFFSET -0.622530 -0.000000 -0.000000
										CHANNELS 3 Zrotation Yrotation Xrotation
										End Site
										{
											OFFSET 0.000000 0.000000 0.000000
										}
									}
								}
								JOINT RThumb
								{
									OFFSET 0.000000 0.000000 0.000000
									CHANNELS 3 Zrotation Yrotation Xrotation
									End Site
									{
										OFFSET 0.000000 0.000000 0.000000
									}
								}
							}
						}
					}
				}
			}
		}
	}
}
MOTION
Frames: 9
Frame Time: 0.008333
-29.066549 17.492524 0.142605 35.908509 88.082878 33.076333 2.769652 -2.164991 -0.407265 -17.881813 5.025116 14.310615 -1.639973 -0.016594 0.207722 -0.263007 6.112071 -10.025908 0.000000 0.000000 0.000000 -5.686033 5.051569 -7.473093 17.547115 -13.640071 18.799463 -0.588707 -3.123642 3.479313 -0.448649 -0.567600 -15.586394 -0.048400 1.419400 -3.903600 -1.504591 0.783836 9.679250 0.066211 1.018667 -2.205959 -0.958272 0.228101 3.329433 1.291688 2.055871 -19.033121 4.421517 2.259936 11.236921 -0.673600 1.537900 12.142500 5.269669 -1.062017 1.104661 -2.541917 0.059034 -0.011148 -1.621866 -0.379399 -0.000103 -0.076320 -0.021146 -0.000052 -0.076320 -0.021146 -0.000000 0.000000 0.000000 0.000000 0.000000 0.000000 0.000000 -5.936130 1.122267 1.439279 89.884174 -1.737588 31.807712 -18.359187 33.610279 -4.860196 0.412824 -2.935232 4.645193 -10.839995 -30.043221 5.301100 7.125000 0.000000 0.000000 20.217900 -56.316300 -5.776300 
-29.066141 17.488444 0.142911 34.849409 88.229143 32.138501 2.749494 -2.189471 -0.409599 -17.555285 5.336331 14.061257 -1.614608 -0.016825 0.232770 -0.219809 5.620576 -9.840979 0.000000 0.000000 0.000000 -5.721620 4.998550 -7.453061 17.745486 -13.589913 18.673457 -0.594718 -3.141179 3.508666 -0.459280 -0.342105 -15.694342 -0.007600 0.561700 -1.543500 -1.274830 0.784054 9.527454 0.047134 1.029121 -2.213679 -1.242212 0.249437 3.317984 1.765532 2.129339 -18.752237 4.169328 2.188544 11.149462 -0.932900 1.525100 12.019200 5.294651 -1.092668 1.115735 -2.550367 0.050713 -0.011109 -1.619594 -0.379017 -0.000103 -0.076063 -0.021088 -0.000051 -0.076063 -0.021088 -0.000000 0.000000 0.000000 0.000000 0.000000 0.000000 0.000000 -5.932483 1.093453 1.446646 90.104834 -1.772786 31.710226 -18.299150 33.576463 -4.831416 0.391557 -2.925181 4.785930 -11.051835 -29.510338 5.297100 7.125000 0.000000 0.000000 19.695200 -55.864500 -5.399700 
-29.070732 17.486812 0.143829 35.968156 88.229926 33.247387 2.769238 -2.173500 -0.388960 -17.316454 5.989762 13.499130 -1.574826 0.192463 0.769024 -0.154254 4.866598 -9.561971 0.000000 0.000000 0.000000 -5.688518 5.042026 -7.466292 17.616658 -13.664174 18.655007 -0.595024 -3.159813 3.567800 -0.458057 -0.293242 -15.647898 -0.002300 0.306500 -0.842000 -1.304762 0.780134 9.556202 0.035565 1.022993 -2.213312 -1.205457 0.247259 3.333281 1.420852 1.986231 -18.876099 4.407860 2.114666 11.198949 -0.722700 1.488200 12.073500 5.269199 -1.060091 1.103246 -2.565146 0.050809 -0.011087 -1.615260 -0.378102 -0.000102 -0.075592 -0.020991 -0.000051 -0.075592 -0.020991 -0.000000 0.000000 0.000000 0.000000 0.000000 0.000000 0.000000 -5.956869 1.126524 1.445864 90.107787 -1.807874 31.675782 -18.377789 33.666462 -4.863533 0.392613 -2.926090 4.692446 -11.141490 -29.522454 5.338600 7.125000 0.000000 0.000000 19.614100 -55.890200 -5.388600 
-29.075934 17.486608 0.145359 36.970683 88.090352 34.198151 2.740179 -2.063013 -0.344341 -17.714859 5.252194 14.039599 -1.622562 0.001064 0.214778 -0.237567 5.796959 -9.831907 0.000000 0.000000 0.000000 -5.711751 5.149161 -7.508317 17.538907 -13.642688 18.770590 -0.594265 -3.121889 3.520331 -0.456626 -0.413513 -15.627529 -0.003500 0.383100 -1.052700 -0.955584 0.628313 9.641040 0.526564 0.919802 -2.075903 -1.793309 0.170490 2.761920 0.267767 1.625244 -18.341270 4.954125 2.036736 11.107589 -0.908100 1.519300 11.956500 6.768286 -0.832615 -0.044262 -91.266454 -3.016297 45.498511 12.826369 -22.611106 -2.776428 -0.142237 0.639601 11.757085 15.655690 -25.064701 -7.041100 -7.125000 0.000000 0.000000 -8.345200 3.686400 7.876900 -6.554197 1.439824 1.767930 90.851854 -1.798001 31.560692 -18.635328 33.310367 -4.849733 0.332183 -2.831981 4.510999 -11.418221 -29.470917 5.437100 7.125000 0.000000 0.000000 19.441800 -55.967600 -5.375700 
-29.077974 17.487934 0.146379 37.688935 88.069745 34.865493 2.751147 -2.042782 -0.333335 -17.748204 5.269353 14.048837 -1.619859 0.009792 0.229592 -0.226870 5.685776 -9.793926 0.000000 0.000000 0.000000 -5.688063 5.165251 -7.520954 17.610882 -13.441629 18.941971 -0.591003 -3.080951 3.429459 -0.459329 -0.668027 -15.766763 -0.004200 0.416400 -1.144000 -1.010683 0.616763 9.705428 0.516435 0.904452 -2.080631 -1.732248 0.160743 2.753118 -0.104422 1.481972 -18.478064 5.200611 1.981359 11.180977 -0.681600 1.489500 12.030100 6.737281 -0.799761 -0.059586 -91.246545 -3.055424 45.872429 12.862945 -22.644467 -2.787196 -0.144386 0.644197 11.483229 15.727519 -25.287475 -7.132200 -7.125000 0.000000 0.000000 -8.318500 3.445800 7.888500 -6.579612 1.477826 1.764764 90.771474 -1.799361 31.785507 -18.644410 33.317101 -4.850594 0.316410 -2.824561 4.263197 -11.804236 -29.290639 5.568000 7.125000 0.000000 0.000000 18.974100 -55.869700 -5.193800 
-29.078586 17.489464 0.146583 37.732006 88.015321 34.858255 2.748773 -2.053695 -0.325111 -17.494297 5.999624 13.673593 -1.577880 0.124867 0.525028 -0.160722 4.917769 -9.468063 0.000000 0.000000 0.000000 -5.681329 5.164585 -7.537859 17.657975 -13.264024 19.080230 -0.590159 -3.059799 3.387648 -0.463699 -0.776260 -15.882191 -0.002200 0.301100 -0.827400 -1.034981 0.656171 9.733133 0.519025 0.953381 -2.060389 -1.770295 0.193251 2.730217 0.303126 1.669991 -18.177545 4.921357 2.067176 10.983169 -0.934900 1.525300 11.838000 6.773522 -0.837451 -0.033929 -91.259011 -3.091060 46.243434 12.932505 -22.753669 -2.813344 -0.159905 0.643605 11.198393 16.264918 -25.161721 -7.354400 -7.125000 0.000000 0.000000 -7.976200 3.493700 7.550100 -6.552825 1.426996 1.772483 90.704360 -1.713219 32.055750 -18.540062 33.191107 -4.807613 0.281558 -2.812156 4.139957 -12.316767 -29.022877 5.732400 7.125000 0.000000 0.000000 18.345800 -55.714800 -4.943300 
-29.079198 17.489464 0.146685 37.033162 88.026785 34.139099 2.737013 -2.077566 -0.325016 -17.234861 6.562227 13.415366 -1.546724 0.187047 0.696094 -0.131203 4.494447 -9.158104 0.000000 0.000000 0.000000 -5.702120 5.145104 -7.535385 17.697412 -13.302245 19.071336 -0.588956 -3.068208 3.398981 -0.462976 -0.749918 -15.867024 -0.001600 0.261700 -0.719100 -0.997010 0.667968 9.727500 0.520325 0.973361 -2.056332 -1.786334 0.200079 2.737964 0.308012 1.679740 -18.172300 4.939582 2.078972 10.978426 -0.922900 1.532600 11.833000 6.775415 -0.838210 -0.032704 -91.269328 -3.052971 46.594444 13.052406 -22.917179 -2.857055 -0.173110 0.638908 10.946398 16.655400 -24.839828 -7.451900 -7.125000 0.000000 0.000000 -7.707700 3.765700 7.252000 -6.552372 1.421747 1.772142 90.668939 -1.688007 32.262606 -18.548074 33.196535 -4.807072 0.254236 -2.797821 4.073810 -12.775661 -28.684983 5.859400 7.125000 0.000000 0.000000 17.726200 -55.485400 -4.668600 
-29.079402 17.487220 0.146991 36.824878 88.067651 33.935396 2.733389 -2.075827 -0.328623 -17.331138 6.231983 13.592957 -1.565916 0.143474 0.588621 -0.158634 4.836598 -9.331088 0.000000 0.000000 0.000000 -5.711230 5.135968 -7.523995 17.726731 -13.372945 19.022012 -0.587425 -3.082330 3.426223 -0.460902 -0.745484 -15.836069 -0.001900 0.281400 -0.773100 -0.968409 0.638040 9.703630 0.512707 0.938841 -2.069970 -1.770948 0.174835 2.782750 -0.030882 1.531879 -18.540888 5.184861 2.028686 11.193103 -0.697600 1.515300 12.055500 6.743686 -0.802289 -0.058120 -91.245868 -3.005039 46.908054 13.159691 -23.047322 -2.894908 -0.174759 0.636781 10.720456 16.614225 -24.748027 -7.407300 -7.125000 0.000000 0.000000 -7.726200 3.866200 7.255100 -6.571232 1.469344 1.763923 90.633668 -1.773920 32.430283 -18.696503 33.353733 -4.855672 0.256157 -2.787262 3.967486 -12.913865 -28.448549 5.872000 7.125000 0.000000 0.000000 17.462900 -55.293800 -4.513800 
-29.081748 17.486404 0.148113 37.462518 88.067180 34.546406 2.744441 -2.054414 -0.329879 -17.579802 5.670582 13.877577 -1.597709 0.095529 0.459941 -0.190199 5.291742 -9.695250 0.000000 0.000000 0.000000 -5.690617 5.151228 -7.525949 17.711264 -13.336741 19.060711 -0.586722 -3.082340 3.435326 -0.462400 -0.787347 -15.874697 -0.002300 0.307200 -0.844200 -0.983982 0.640445 9.749072 0.510990 0.937419 -2.072439 -1.812984 0.185063 2.731665 0.323307 1.624791 -18.424164 4.942704 2.024116 11.153643 -0.923500 1.520900 12.012000 6.765735 -0.832422 -0.049366 -91.216531 -2.977397 47.183486 13.208539 -23.121298 -2.913641 -0.179788 0.642072 10.405529 16.802380 -25.032673 -7.574200 -7.125000 0.000000 0.000000 -7.633300 3.542900 7.212400 -6.539142 1.457200 1.770992 90.634639 -1.924400 32.446435 -18.820645 33.469970 -4.899365 0.263438 -2.785380 3.988246 -12.877504 -28.495337 5.869700 7.125000 0.000000 0.000000 17.518600 -55.335200 -4.546700 
